<svg id="Capa_1" enable-background="new 0 0 512 512" height="512" viewBox="0 0 512 512" width="512" xmlns="http://www.w3.org/2000/svg"><g><g><g><path d="m26.779 269.295c0-16.044 9.529-35.751 13.936-50.645 4.455-15.058.185-34.299 8.586-47.714 8.23-13.141 27.477-17.884 38.962-28.999 11.088-10.731 16.241-29.828 29.878-38.263 13.106-8.106 32.539-4.337 47.57-9.96 14.424-5.396 26.494-21.096 42.311-23.886 15.147-2.672 31.889 7.832 47.978 7.832s32.831-10.504 47.978-7.832c15.817 2.79 27.887 18.49 42.311 23.886 15.031 5.623 34.464 1.854 47.57 9.96 13.638 8.435 18.791 27.532 29.879 38.263 11.484 11.115 30.731 15.858 38.962 28.999 8.401 13.414 4.131 32.655 8.586 47.713 4.407 14.895 13.935 34.601 13.935 50.645-31.594 7.788-33.976-11.826-66.517-11.826-32.54 0-32.54 12-65.08 12-32.539 0-32.539-12-65.077-12-32.54 0-32.54 12-65.08 12-32.541 0-32.541-12-65.082-12-32.543 0-32.031 7.556-64.276 11.945-33.526 4.566-35.733 7.671-67.33-.118z" fill="#b3e59f"/></g><g><path d="m471.286 218.651c-4.455-15.058-.185-34.299-8.586-47.713-8.23-13.142-27.477-17.885-38.962-29-11.088-10.731-16.241-29.828-29.879-38.263-13.106-8.106-32.539-4.337-47.57-9.96-14.425-5.396-26.494-21.096-42.312-23.886-15.147-2.672-31.889 7.833-47.978 7.833-16.09 0-32.832-10.504-47.979-7.833-9.849 1.737-18.245 8.48-26.661 14.624 14.247-.812 29.723 8.208 44.64 8.208 16.089 0 32.831-10.504 47.978-7.833 15.817 2.79 27.887 18.49 42.312 23.886 15.031 5.624 34.464 1.854 47.57 9.96 13.638 8.435 18.791 27.532 29.879 38.263 11.484 11.115 30.731 15.858 38.962 29 8.401 13.414 4.131 32.655 8.586 47.713 2.85 9.632 7.829 21.274 11.001 32.639 8.623 3.937 17.119 6.905 32.935 3.006-.001-16.043-9.53-35.75-13.936-50.644z" fill="#95d6a4"/></g><circle cx="97.5" cy="255.107" fill="#e17f85" r="75"/><circle cx="414.5" cy="255.107" fill="#e17f85" r="75"/><path d="m414.5 180.107c-5.137 0-10.153.52-15 1.503 34.233 6.949 60 37.213 60 73.497s-25.767 66.547-60 73.497c4.847.984 9.863 1.503 15 1.503 41.421 0 75-33.579 75-75s-33.579-75-75-75z" fill="#de646e"/><g><path d="m379.009 203.018c-7.692 0-16.066-1.285-24.724-4.715-20.281-8.033-31.059-23.449-35.678-31.923-3.965-7.274-1.283-16.385 5.991-20.35 7.272-3.966 16.384-1.284 20.35 5.99 2.678 4.914 8.889 13.837 20.386 18.391 18.141 7.189 35.055-2.703 36.924-3.855 7.052-4.346 16.293-2.15 20.639 4.902s2.151 16.293-4.902 20.639c-3.742 2.305-19.071 10.921-38.986 10.921z" fill="#c6855b"/></g><g><path d="m484.751 350.101c5.439-5.439 10.452-12.269 14.148-20.816 8.66-20.021 5.381-38.543 2.655-47.801-2.34-7.947-10.679-12.493-18.626-10.153-7.946 2.338-12.493 10.677-10.154 18.625 1.581 5.369 3.499 16.069-1.411 27.419-7.744 17.911-26.699 22.876-28.835 23.383-8.059 1.913-13.041 10-11.127 18.06s10 13.042 18.06 11.127c4.277-1.015 21.208-5.762 35.29-19.844z" fill="#c6855b"/></g><g><path d="m27.249 343.566c-5.439-5.439-10.452-12.269-14.148-20.816-8.66-20.021-5.381-38.543-2.655-47.801 2.34-7.947 10.679-12.493 18.626-10.153 7.946 2.338 12.493 10.677 10.154 18.625-1.581 5.369-3.499 16.069 1.411 27.419 7.744 17.911 26.699 22.876 28.835 23.383 8.059 1.913 13.041 10 11.127 18.06s-10 13.042-18.06 11.127c-4.277-1.015-21.208-5.763-35.29-19.844z" fill="#c6855b"/></g><g><path d="m157.147 221.077c-7.537-1.538-15.485-4.471-23.282-9.562-18.266-11.925-25.744-29.184-28.577-38.41-2.431-7.92 2.018-16.31 9.938-18.741 7.918-2.432 16.31 2.017 18.742 9.937 1.642 5.35 5.943 15.334 16.299 22.095 16.338 10.671 34.888 4.359 36.949 3.603 7.778-2.848 16.394 1.15 19.242 8.929s-1.149 16.394-8.929 19.242c-4.127 1.51-20.869 6.888-40.382 2.907z" fill="#c6855b"/></g><circle cx="256" cy="195.107" fill="#e17f85" r="75"/><path d="m256 120.107c-5.137 0-10.153.52-15 1.503 34.233 6.949 60 37.213 60 73.497s-25.767 66.547-60 73.497c4.847.984 9.863 1.503 15 1.503 41.421 0 75-33.579 75-75s-33.579-75-75-75z" fill="#de646e"/><path d="m478.999 442.607h-445.998c-14.084 0-25.501-11.417-25.501-25.501 0-134.481 109.018-243.499 243.499-243.499h10.003c134.481 0 243.499 109.018 243.499 243.499-.001 14.084-11.418 25.501-25.502 25.501z" fill="#f2d59c"/><path d="m261.001 173.607h-10.003c-3.351 0-6.681.086-9.999.221 129.842 5.247 233.5 112.148 233.5 243.278 0 14.084-11.417 25.501-25.501 25.501h30c14.084 0 25.501-11.417 25.501-25.501.001-134.481-109.017-243.499-243.498-243.499z" fill="#ecc372"/></g><path d="m121.818 390.078c4.908 0 8.619-4.946 7.178-9.685-1.321-4.344-.872-8.942 1.266-12.949 2.138-4.006 5.708-6.939 10.052-8.261 3.963-1.205 6.199-5.395 4.994-9.357s-5.392-6.197-9.358-4.994c-8.178 2.487-14.897 8.01-18.921 15.551s-4.871 16.198-2.383 24.376c.983 3.235 3.957 5.319 7.172 5.319zm-42.39-12.377c3.963-1.205 6.199-5.395 4.994-9.357-1.206-3.964-5.397-6.196-9.358-4.994-8.178 2.487-14.897 8.01-18.921 15.551s-4.871 16.198-2.383 24.376c.984 3.235 3.957 5.319 7.172 5.319 4.909 0 8.619-4.946 7.178-9.685-1.321-4.344-.872-8.942 1.266-12.949s5.707-6.94 10.052-8.261zm42.37-79.404c3.963-1.206 6.198-5.396 4.993-9.358-1.205-3.964-5.396-6.194-9.358-4.993-16.881 5.135-26.438 23.046-21.304 39.927.984 3.235 3.957 5.319 7.173 5.319 4.908 0 8.619-4.946 7.178-9.685-2.728-8.968 2.35-18.482 11.318-21.21zm378.839 43.788c1.949-3.14 3.675-6.431 5.146-9.827 9.601-22.196 5.976-42.67 2.96-52.897-1.928-6.542-6.587-11.545-12.366-14.148 2.94-23.877-4.896-47.388-20.024-64.532-.647-11.495-.872-23.463-7.297-33.721-5.746-9.173-15.155-14.533-24.254-19.716-5.998-3.416-11.662-6.643-15.847-10.693-3.995-3.865-7.295-9.364-10.79-15.186-5.386-8.974-10.956-18.253-20.363-24.074-8.848-5.467-19.268-6.38-29.345-7.265-7.134-.625-13.872-1.216-19.543-3.341-5.292-1.977-10.567-5.863-16.153-9.978-8.262-6.086-16.805-12.379-27.479-14.262-10.071-1.776-19.969 1.066-29.542 3.815-6.988 2.006-13.588 3.901-19.74 3.901s-12.751-1.895-19.74-3.901c-9.572-2.749-19.468-5.59-29.543-3.815-10.674 1.883-19.217 8.176-27.479 14.262-5.586 4.115-10.862 8.001-16.16 9.98-5.665 2.122-12.403 2.713-19.537 3.338-10.077.884-20.497 1.798-29.349 7.267-9.403 5.818-14.973 15.098-20.359 24.072-3.495 5.822-6.795 11.321-10.791 15.187-4.183 4.048-9.845 7.272-15.841 10.687-9.102 5.183-18.514 10.542-24.258 19.72-6.399 10.225-6.65 22.172-7.295 33.643-13.687 15.556-21.601 36.251-20.554 58.334-5.794 2.773-10.021 7.723-11.841 13.896-3.016 10.229-6.641 30.703 2.961 52.9 1.825 4.217 4.02 8.231 6.541 11.985-8.39 25.265-12.755 51.991-12.755 79.391 0 18.197 14.804 33.001 33.001 33.001h53.05c4.142 0 7.5-3.357 7.5-7.5s-3.358-7.5-7.5-7.5h-53.05c-9.926 0-18.001-8.075-18.001-18.002 0-65.688 23.326-121.079 69.123-166.876 51.24-51.24 105.052-69.123 176.879-69.123 62.536 0 121.331 23.578 166.876 69.123 45.101 45.101 69.122 101.894 69.122 166.877 0 9.926-8.075 18.001-18.001 18.001h-357.948c-4.142 0-7.5 3.357-7.5 7.5s3.358 7.5 7.5 7.5h357.948c18.197 0 33.001-14.805 33.001-33.002 0-25.825-3.89-51.05-11.363-75.021zm-468.61-60.79c-1.131 3.829-2.313 9.641-1.97 16.487-3.782 6.98-7.219 14.13-10.308 21.426-7.421-17.641-4.521-33.941-2.104-42.14 1.158-3.928 5.39-6.223 9.315-5.07 3.901 1.145 6.221 5.392 5.067 9.297zm41.489-41.672c-10.114 10.114-19.249 20.944-27.378 32.368-2.48-7.342-8.547-12.897-16.1-14.664-1.384-40.318 33.109-72.89 73.167-69.467 2.83 5.602 6.805 11.86 12.324 17.859-15.006 9.66-29.094 20.984-42.013 33.904zm55.21-41.834c-9.858-9.662-14.383-20.741-16.266-26.889-1.213-3.954 1.017-8.157 4.972-9.371 3.888-1.193 8.173 1.072 9.367 4.968 1.761 5.746 6.152 16.019 16.212 23.891-4.836 2.309-9.599 4.779-14.285 7.401zm151.227-65.807c18.864 7.162 33.365 22.354 39.839 41.027-19.032-4.546-38.729-6.902-58.791-6.902-23.353 0-46.558 1.526-68.801 6.904 8.428-24.404 30.356-42.295 56.734-45.036 4.12-.428 7.113-4.115 6.685-8.235-.429-4.121-4.119-7.116-8.235-6.685-35.6 3.699-64.569 29.969-72.021 64.609-5.146 1.619-10.238 3.392-15.261 5.34-2.012-.755-3.934-1.719-5.734-2.896-8.384-5.471-11.886-13.63-13.229-18.009-3.596-11.732-16.419-18.497-28.11-14.91-10.968 3.365-17.506 14.402-15.552 25.42-16.867.005-32.561 5.105-45.639 13.831.662-4.318 1.769-8.251 3.819-11.522 3.74-5.976 11.137-10.188 18.968-14.647 6.542-3.725 13.306-7.576 18.849-12.941 5.412-5.236 9.382-11.851 13.222-18.247 4.67-7.782 9.083-15.132 15.386-19.033 5.819-3.596 14.053-4.318 22.771-5.083 7.821-.686 15.908-1.396 23.481-4.232 7.253-2.709 13.632-7.409 19.801-11.953 7.187-5.294 13.975-10.294 21.187-11.566 6.658-1.174 14.499 1.078 22.799 3.46 7.678 2.204 15.617 4.483 23.879 4.483s16.201-2.279 23.879-4.483c8.3-2.383 16.139-4.637 22.798-3.46 7.213 1.272 14.001 6.272 21.188 11.566 6.169 4.544 12.548 9.244 19.794 11.951 7.58 2.839 15.667 3.548 23.488 4.234 8.717.765 16.951 1.487 22.767 5.08 6.308 3.903 10.72 11.253 15.39 19.035 3.84 6.396 7.81 13.011 13.221 18.247 5.545 5.366 12.311 9.22 18.854 12.947 7.83 4.46 15.226 8.673 18.968 14.647 2.054 3.276 3.159 7.219 3.821 11.548-8.377-5.612-17.853-9.723-28.064-11.95-.525-2.413-1.453-4.78-2.82-7-6.517-10.561-20.406-13.858-30.952-7.35-1.542.948-15.5 9.103-30.239 3.265-9.286-3.678-14.36-10.983-16.559-15.012-6.532-11.97-22.255-15.366-33.142-7.297-8.809-10.179-20.115-18.234-33.113-23.169-3.873-1.47-8.204.478-9.674 4.35-1.472 3.873.476 8.204 4.348 9.674zm56.692 45.685c-1.87-8.668-5.114-16.871-9.516-24.351 3.609-2.851 9.004-1.797 11.238 2.297 3.168 5.806 10.526 16.354 24.201 21.77 21.525 8.527 41.423-3.083 43.63-4.44 3.516-2.169 8.145-1.068 10.315 2.449 2.168 3.521 1.065 8.152-2.451 10.319-2.657 1.633-16.758 9.768-34.911 9.806-13.589-7.267-27.812-13.227-42.506-17.85zm131.009 96.887c-8.57-12.369-18.303-24.064-29.17-34.931-12.004-12.004-25.014-22.637-38.833-31.832 11.219-2.949 19.29-7.471 22.273-9.306 3.677-2.266 6.471-5.428 8.281-9.031 29.931 7.15 51.795 34.332 51.795 65.656 0 2.983-.993 8.968-1.188 9.025-5.79 1.705-10.375 5.55-13.158 10.419zm25.905 47.795c-3.451-8.473-7.372-16.752-11.749-24.808-.37-4.067-1.177-7.458-1.836-9.698-1.153-3.917 1.156-8.163 5.073-9.317 3.961-1.167 8.139 1.109 9.308 5.076 2.262 7.667 4.945 22.432-.796 38.747z"/></g></svg>